<svg width="150" height="150" viewBox="0 0 150 150" fill="none" xmlns="http://www.w3.org/2000/svg">
<path d="M128 56.6C130.8 54.5 134.1 52.6 137.8 52.7C145.4 53.2 147.9 64.1 147.9 73.6C147.8 85.4 144.4 93.8 137.5 93.7C133.4 93.5 129.8 90.6 127.9 89.2C127.1 91.6 126.2 93.7 125.3 95.8L128.2 99.2C129.1 100.3 128.6 101.7 126.9 101.8L122.3 101.5C120 106 117.7 109.3 114.9 112.1L117 116.4C117.9 118.1 116.6 119.6 114.9 118.7L110.4 116.6H109.8C104.8 120.5 100.4 122.9 96.6 124.6L96.5 129.7C96.4 131 94.9 131.5 93.8 130.7L89.9 127C81.6 130.3 73.9 130.2 66.4 129.7L64.2 133.5C63.4 134.8 61.7 134.5 61.1 133L59.9001 128.4C51.8 126.4 45.2001 123.4 39.9001 120.3L36.4001 122.8C35.2001 123.7 33.6 122.9 33.7001 121.2L35 116.9C30.6 113.5 27 109.6 23.9 105.6L19.6 106.8C18 107.4 16.9 105.8 17.5 104.4L20.5 99.9C18.3 95.6 16.6 91.6 15.3 87.4L11.1 87C9.80005 86.9 9.50005 85.3 10.4 84.4L14.4 81.5C14.2001 79.6 14.1001 77.9001 14.0001 76.2001L14 76.2L13.8 76.3H13.7C9.30005 77.4 6.40005 75.9 4.80005 74.1C2.60005 71.1 1.70005 67.4 1.90005 62.1C2.30005 52 6.30005 49 9.40005 48.9C13.1 49 15.9 51.9 17.8 53.8L20.4 48.5C30.1 29.3 50.8 12.9 82.9 16.7C112.2 20.1 124.3 46.7 127.9 57.4L128 57.5V57V56.6Z" fill="#180524"/>
<path d="M13.8 76.3H13.7C9.30005 77.4 6.40005 75.9 4.80005 74.1C2.60005 71.1 1.70005 67.4 1.90005 62.1C2.30005 52 6.30005 49 9.40005 48.9C13.1 49 15.9 51.9 17.8 53.8L20.4 48.5C30.1 29.3 50.8 12.9 82.9 16.7C112.2 20.1 124.3 46.7 127.9 57.4L128 57.5V57V56.6C130.8 54.5 134.1 52.6 137.8 52.7C145.4 53.2 147.9 64.1 147.9 73.6C147.8 85.4 144.4 93.8 137.5 93.7C133.4 93.5 129.8 90.6 127.9 89.2C127.1 91.6 126.2 93.7 125.3 95.8L128.2 99.2C129.1 100.3 128.6 101.7 126.9 101.8L122.3 101.5C120 106 117.7 109.3 114.9 112.1L117 116.4C117.9 118.1 116.6 119.6 114.9 118.7L110.4 116.6H109.8C104.8 120.5 100.4 122.9 96.6 124.6L96.5 129.7C96.4 131 94.9 131.5 93.8 130.7L89.9 127C81.6 130.3 73.9 130.2 66.4 129.7L64.2 133.5C63.4 134.8 61.7 134.5 61.1 133L59.9001 128.4C51.8001 126.4 45.2001 123.4 39.9001 120.3L36.4001 122.8C35.2001 123.7 33.6001 122.9 33.7001 121.2L35 116.9C30.6 113.5 27 109.6 23.9 105.6L19.6 106.8C18 107.4 16.9 105.8 17.5 104.4L20.5 99.9C18.3 95.6 16.6 91.6 15.3 87.4L11.1 87C9.80005 86.9 9.50005 85.3 10.4 84.4L14.4 81.5C14.2 79.6 14.1 77.9 14 76.2L13.8 76.3ZM13.8 76.3L13.7 76" stroke="white" stroke-width="0.25" stroke-miterlimit="10"/>
<path d="M13.7 72.3H14C14.1 70.9 14.2 69.6 14.4 68.1L9.90002 68C8.70002 67.6 8.70002 66.1 10 65.9L14.4 66.2L14.7 64.1L10.2 61.8C9.00002 61 9.70002 59.3 11 59.7L15 62L16.2 58.2C14.7 56.3 12.2 53.2 9.70002 53.4C7.80002 53.7 5.90002 57 5.80002 63.9C5.70002 71.3 8.30002 73.7 13.7 72.3Z" fill="white"/>
<path d="M137.6 56.9C135 56.7 130.2 59.5 129.1 61.8L130.1 67.2L137.1 64.2C138.4 64.1 138.9 65.9 137.6 66.4L131.1 69H130.2L130.4 72.9L138.6 72.7C139.9 73 139.8 74.7 138.6 74.7L131.4 74.6L130.4 74.4C130.4 75.9 130.2 77.4 130.1 78.3L130.6 78L137.6 80.9C138.6 81.4 138.5 83.1 137 82.9L130.4 80.1L130 79.6C129.8 81.6 129.6 83.1 129.2 84.6C130.6 86.1 134.4 89.6 137.6 89.6C141.9 89.6 143.9 80.6 143.9 73.1C143.9 64.9 141.9 57.1 137.6 56.9Z" fill="white"/>
<path d="M108.6 73.4C102.5 75 98.4 73.4 95 71.7L89.0999 68.1C91.1999 66.4 92.8 64 92.8 60.4C92.8 55.4 88.8999 50.2 83.0999 50.2C77.9999 50.2 73.6999 54.1 73.6999 59.7C73.6999 62.7 75 65.1 76.5 67.1C75.5 67.5 74.4 67.9 73.4 69C73.1 74.9 68.9 81.5 60.9 81.5C54.2 81.5 47.8 76.6 47.9 67.6L46.5 66.4C48.1 65 49.9 62.2 49.9 59C49.9 54.4 46.5 48.9 41 48.9C36.1 48.9 31.7 53 31.7 59C31.7 61.6 33 64.1 34.4 65.7L30.1 68.4C25.4 71 21.4999 69.9 18.4 67.4C18 70.1 17.7 72.5 17.7 75C17.7 93.6 33.1 125.6 72.9 125.7C103.1 125.9 123.5 103.1 125.7 79.5C123.9 72.1 120.2 68.5 112.1 71.7L108.6 73.4Z" fill="white"/>
<path d="M49.9 31.4C48 32.2 46.2 34.6 47.4 36.2C49.2 38.9 53.2 37.4 54.2 35.2C55.5 32.5 52.6 30.4 49.9 31.4Z" fill="white"/>
<path d="M87.2 32.9C84.9 34.1 85.1 37.1 88 38.4C91.9 40.1 94.6 37 92.4 34.2C91.1 32.9 88.9 32.1 87.2 32.9Z" fill="white"/>
<path d="M49.9 58.9C49.9 54 46.4 50 41.1 48.9C36.4 48.9 31.8 52.7 31.8 58.9C31.8 61.1 32.7 63.5 34.5 65.7L30.1 68.4C26.4 70.6 22.6 70.9 18.4 67.4L18.1 67.1C17.7 69.5 17.6 72.4 17.6 75C17.6 94.1 33.1 125.6 72.6 125.7C102.9 125.9 123.5 105 125.7 79.5C124.5 74.5 121.9 70.1 116.9 70.7C112.6 71 110.1 73.4 106.6 73.9C102.4 74.5 100 73.9 96.9 72.7L89 68.1C91 66.5 92.6 64.1 92.6 60.5C92.6 55.4 88.9 50.2 83.1 50.2C78 50.2 73.9 54.1 73.9 59.6C73.9 62.6 75 64.9 76.6 67.4C75.4 67.6 74.1 68.4 73.4 69C73.2 75 69 81.5 60.9 81.5C54.4 81.5 47.7 76.7 48 67.5L46.5 66.4C48.4 64.5 49.9 61.9 49.9 58.9Z" fill="white"/>
<path d="M41 53.9C38.4 53.9 35.6 56 35.6 59.5C35.6 62.5 37.9 65.1 40.9 65.1C44 65.2 46.4 62.6 46.4 59.5C46.4 56.5 44 53.9 41 53.9Z" fill="#180524" stroke="white" stroke-width="0.25" stroke-miterlimit="10"/>
<path d="M82.5999 55C79.8999 55.4 77.1999 57.5 77.4999 61.2C77.6999 64.1 80.4999 66.5 83.4999 66.2C86.4999 66 88.6999 63.4 88.4999 60.4C88.1999 57.4 85.5999 54.7 82.5999 55Z" fill="#180524" stroke="white" stroke-width="0.25" stroke-miterlimit="10"/>
<path d="M60.9 64.4C58.6 64.4 56 66 56 68.9C56 71.4 58 73.6 60.7 73.6C63.4 73.6 65.4 71.4 65.4 68.9C65.4 66.6 63.2 64.4 60.9 64.4Z" fill="#180524" stroke="white" stroke-width="0.25" stroke-miterlimit="10"/>
<path d="M60.9 60C56.5 60 51.9 63.6 51.9 69C51.9 74 55.7 77.9 60.6 77.9C65.6 77.9 69.4 74.1 69.4 69C69.4 64.1 65.4 60 60.9 60ZM60.9 73.6C58.4 73.6 56 71.9 56 68.9C56 66.4 58 64.4 60.7 64.4C63 64.4 65.4 66.4 65.4 68.9C65.4 71.4 63.4 73.6 60.9 73.6Z" fill="white"/>
<path d="M33.9999 80.9L30.0999 84.1C28.9999 85.1 29.8999 87.5 31.8999 86.9L36.9999 85.1C37.6999 84.9 37.8999 83.9 37.4999 83.4L36.0999 81C35.5999 80.4 34.8999 80.2 33.9999 80.9Z" fill="#180524" stroke="white" stroke-width="0.25" stroke-miterlimit="10"/>
<path d="M55.2 99.7L53.6 105C53.4 106.5 55.4 107.7 56.6 106.5L59.9 102.4C60.5 101.7 60.4 100.6 59.6 100.1L57.4 98.9C56.5 98.4 55.5 98.7 55.2 99.7Z" fill="#180524" stroke="white" stroke-width="0.25" stroke-miterlimit="10"/>
<path d="M75.6 112.1L73.2 112.4C72.4 112.5 71.9 113.2 72.1 114L73.7 118.6C74.4 120.4 76.7 120.1 76.7 118.1V113.2C76.7 112.6 76.2 112 75.6 112.1Z" fill="#180524" stroke="white" stroke-width="0.25" stroke-miterlimit="10"/>
<path d="M85.5 88C85 87.6 84.2 87.6 83.7 88L81.4 89.1C80.6 89.6 80.4 90.6 81 91.2L84.6 94.9C85.9 96 87.9 94.9 87.4 93L85.5 88Z" fill="#180524" stroke="white" stroke-width="0.25" stroke-miterlimit="10"/>
<path d="M98.1 102L96.4 103.4C95.7 104 95.7 105.1 96.5 105.7L100.4 109.1C101.9 110.4 103.7 108.7 102.6 107L100.4 102.5C100 101.6 98.9 101.4 98.1 102Z" fill="#180524" stroke="white" stroke-width="0.25" stroke-miterlimit="10"/>
<path d="M108.9 84.4C108.5 84 107.8 83.8 106.5 85.5C105.2 87.2 106 88 106 88L111.1 90.5C113 91.5 114.5 90 113.6 88.4L108.9 84.4Z" fill="#180524" stroke="white" stroke-width="0.25" stroke-miterlimit="10"/>
</svg>
